<svg width="480" height="480" viewBox="0 0 480 480" fill="none" xmlns="http://www.w3.org/2000/svg">
<path d="M276.054 192.861L221.783 225.586C219.782 226.792 218.559 228.958 218.559 231.295V253.435C218.559 255.832 219.845 258.044 221.928 259.23L240.706 269.915C242.855 271.138 245.504 271.071 247.589 269.742L348.401 205.436C350.32 204.211 351.482 202.092 351.482 199.815V176C351.482 173.679 350.276 171.526 348.297 170.314L244.993 107.056C242.922 105.788 240.325 105.746 238.214 106.947L132.185 167.284C130.102 168.469 128.815 170.681 128.815 173.078V303.762C128.815 306.097 130.037 308.261 132.035 309.469L238.165 373.571C240.297 374.858 242.969 374.85 245.094 373.549L348.297 310.353C350.276 309.141 351.482 306.987 351.482 304.667V257.053C351.482 251.94 345.963 248.73 341.518 251.259L306.987 270.909C305.196 271.928 303.978 273.717 303.685 275.756L303.457 277.341C303.178 279.286 302.056 281.008 300.389 282.049L245.139 316.542C242.993 317.882 240.273 317.891 238.118 316.566L178.35 279.826C176.377 278.613 175.174 276.462 175.174 274.146V204.436C175.174 202.085 176.412 199.908 178.432 198.706L238.239 163.124C240.333 161.878 242.941 161.874 245.039 163.114L276.003 181.412C280.347 183.979 280.375 190.255 276.054 192.861Z" fill="white"/>
</svg>
